<?xml version="1.0" standalone="no"?>
<!DOCTYPE svg PUBLIC "-//W3C//DTD SVG 20010904//EN"
 "http://www.w3.org/TR/2001/REC-SVG-20010904/DTD/svg10.dtd">
<svg version="1.0" xmlns="http://www.w3.org/2000/svg"
 width="457.000000pt" height="457.000000pt" viewBox="0 0 457.000000 457.000000"
 preserveAspectRatio="xMidYMid meet">
<metadata>
Created by potrace 1.11, written by Peter Selinger 2001-2013
</metadata>
<g transform="translate(0.000000,457.000000) scale(0.100000,-0.100000)"
fill="#000000" stroke="none">
<path d="M1919 4566 c-2 -2 -47 -7 -99 -10 -52 -4 -108 -9 -125 -11 -16 -3
-52 -7 -80 -10 -27 -3 -77 -10 -110 -15 -33 -5 -78 -12 -100 -15 -97 -15 -319
-70 -424 -107 -201 -69 -362 -156 -469 -255 -97 -89 -101 -237 -10 -370 82
-120 299 -286 541 -413 130 -69 365 -168 437 -185 8 -2 47 -13 85 -25 84 -25
161 -43 230 -55 17 -3 37 -8 45 -10 8 -2 35 -6 60 -9 25 -3 54 -8 65 -10 45
-9 226 -20 325 -19 161 0 357 21 498 54 26 6 56 12 66 15 321 65 743 243 980
413 381 273 399 568 46 743 -175 87 -472 179 -680 212 -50 8 -92 16 -115 21
-39 8 -324 41 -445 51 -62 5 -717 14 -721 10z m601 -230 c58 -4 123 -9 145
-11 22 -3 60 -7 85 -9 239 -23 605 -104 825 -185 157 -57 343 -148 329 -160
-255 -219 -672 -408 -1084 -490 -88 -18 -93 -19 -155 -26 -33 -4 -69 -9 -80
-11 -121 -23 -555 -22 -675 1 -10 2 -40 6 -67 10 -95 13 -340 78 -463 122
-118 42 -351 151 -449 208 -107 64 -271 181 -271 195 0 11 143 87 250 133 147
62 331 119 495 152 89 18 251 44 311 50 38 4 76 9 85 10 8 2 67 6 130 10 63 4
115 8 116 9 4 4 377 -2 473 -8z"/>
<path d="M670 3232 c-22 -17 -25 -28 -23 -75 4 -155 186 -344 468 -487 211
-106 514 -188 795 -216 30 -3 73 -7 95 -9 45 -5 487 -5 550 0 37 3 136 13 187
20 103 13 145 19 225 35 193 40 374 100 523 175 262 130 469 343 473 485 4
101 -73 106 -211 14 -158 -107 -401 -217 -624 -284 -57 -17 -110 -33 -118 -35
-122 -28 -208 -46 -265 -55 -38 -6 -81 -13 -95 -15 -14 -3 -56 -7 -95 -11 -38
-3 -86 -7 -105 -9 -50 -6 -315 -6 -380 0 -102 8 -236 27 -349 50 -291 57 -616
194 -860 362 -108 74 -152 87 -191 55z"/>
<path d="M674 2642 c-41 -27 -38 -111 8 -201 90 -178 365 -366 689 -471 118
-39 357 -92 464 -104 28 -3 82 -9 120 -13 144 -16 642 -8 767 12 13 2 46 6 73
10 99 12 259 47 373 80 307 89 547 228 694 402 122 144 139 289 34 285 -42 -2
-74 -17 -165 -79 -123 -85 -374 -198 -576 -261 -125 -39 -332 -90 -394 -97
-25 -3 -59 -8 -76 -10 -16 -3 -43 -7 -60 -10 -127 -20 -455 -26 -615 -12 -282
26 -609 118 -865 243 -137 67 -177 90 -292 170 -74 51 -101 64 -130 64 -21 0
-43 -4 -49 -8z"/>
<path d="M687 2054 c-45 -13 -55 -91 -21 -178 61 -160 304 -349 597 -465 143
-57 388 -119 537 -136 30 -3 66 -8 80 -10 160 -25 646 -24 810 0 14 2 50 7 80
10 30 3 62 8 70 10 8 2 35 7 60 10 25 4 65 11 90 17 25 5 52 11 60 13 129 27
348 108 465 170 195 103 354 245 417 372 86 172 -7 237 -171 120 -159 -113
-421 -230 -686 -306 -70 -20 -292 -71 -330 -76 -11 -1 -42 -5 -70 -9 -103 -14
-122 -16 -215 -23 -166 -11 -396 -6 -520 12 -451 66 -831 211 -1118 427 -51
38 -97 52 -135 42z"/>
<path d="M665 1436 c-20 -20 -23 -31 -19 -76 15 -175 244 -386 569 -525 100
-42 294 -105 370 -118 17 -3 44 -9 60 -12 17 -3 53 -10 80 -15 257 -49 729
-56 1015 -15 19 3 54 7 78 10 54 6 230 42 302 61 407 111 747 340 830 560 23
63 22 95 -4 126 -30 35 -92 20 -189 -45 -105 -70 -206 -124 -337 -180 -91 -38
-265 -102 -310 -113 -8 -2 -40 -10 -70 -19 -103 -29 -312 -70 -410 -81 -30 -3
-84 -9 -120 -14 -72 -9 -500 -6 -540 4 -14 3 -45 8 -70 11 -112 12 -352 69
-486 116 -109 38 -279 112 -357 156 -33 18 -61 33 -63 33 -2 0 -57 36 -122 80
-132 89 -165 98 -207 56z"/>
<path d="M449 1019 c-19 -19 -21 -29 -16 -88 18 -221 212 -430 570 -615 285
-147 542 -231 899 -290 128 -21 531 -29 668 -13 336 40 700 152 997 308 309
162 474 314 534 492 22 65 19 145 -7 164 -38 28 -73 12 -287 -128 -363 -237
-800 -391 -1232 -434 -33 -3 -78 -8 -100 -10 -22 -2 -112 -4 -200 -5 -238 0
-326 8 -537 51 -384 77 -769 250 -1077 483 -148 112 -175 122 -212 85z"/>
</g>
</svg>
