<svg xmlns="http://www.w3.org/2000/svg" width="125" height="40" viewBox="0 0 125 40">
    <g fill="none" fill-rule="evenodd">
        <path fill="#1A4C8D" d="M16.289 15.32c7.156-.06 12.186-3.099 12.978-3.73 1.152-.916 2.123-.55 1.577.796-.764 1.88-4.61 5.686-14.393 5.747-9.783.06-13.868-4.035-14.353-5.809-.486-1.773.995-1.253.995-1.253 5.908 4.616 13.196 4.25 13.196 4.25zm0 5.289c7.156-.061 12.186-3.099 12.978-3.73 1.152-.917 2.123-.55 1.577.795-.764 1.881-4.61 5.686-14.393 5.748-9.783.06-13.868-4.036-14.353-5.809-.486-1.773.995-1.253.995-1.253 5.908 4.616 13.196 4.249 13.196 4.249zm0 5.289c7.156-.062 12.186-3.099 12.978-3.73 1.152-.916 2.123-.55 1.577.795-.764 1.88-4.61 5.686-14.393 5.748-9.783.06-13.868-4.036-14.353-5.809-.486-1.773.995-1.254.995-1.254 5.908 4.617 13.196 4.25 13.196 4.25zm0 5.289c7.156-.062 12.186-3.1 12.978-3.73 1.152-.917 2.123-.55 1.577.795-.764 1.88-4.61 5.686-14.393 5.747-9.783.061-13.868-4.035-14.353-5.808-.486-1.773.995-1.254.995-1.254 5.908 4.616 13.196 4.25 13.196 4.25z"/>
        <path fill="#3F403D" d="M15.588 10.041c-8.221 0-13.681-4.863-13.681-4.863s4.2-3.222 13.56-3.222c9.721 0 14.641 3.222 14.641 3.222s-5.1 4.863-14.52 4.863zM30.92 3.294c4.68 4.255-6.9 9.908-14.581 10.03-7.68.122-14.02-4.091-15.6-6.2-1.277-1.703-.36-3.04-.36-3.04C4.621-.415 16.158.01 16.158.01c11.145.243 14.76 3.283 14.76 3.283zM1.082 31.124s5.82 5.411 14.58 5.411c9.242 0 13.982-4.438 15.242-5.046 1.26-.607.9 1.095.9 1.095s-.15 1.064-1.5 2.431C28.983 36.354 23.224 40 16.084 40c-6.901 0-11.881-3.04-13.442-4.195-1.56-1.155-2.58-2.735-2.64-4.073-.06-1.337 1.08-.607 1.08-.607z"/>
        <path fill="#0455A4" d="M40.546 29.018h2.606V12.42h-4.758v2.297H36V10h16.758v4.716h-2.394V12.42h-4.697v16.6h2.212v2.419h-7.333v-2.42zM64.43 19.87c1.185 0 2.119.32 2.801.958.683.638 1.045 1.47 1.085 2.5v5.957h1.868v2.438h-6.688v-2.438h2.32v-4.806a2.395 2.395 0 0 0-.588-1.441c-.351-.404-.908-.626-1.671-.668-.523 0-1.02.094-1.492.28a4.009 4.009 0 0 0-1.25.775c-.36.33-.652.723-.873 1.178a3.35 3.35 0 0 0-.331 1.488v3.194h1.897v2.438h-6.687v-2.438h2.29v-16.78h-2.29v-2.44h4.79V22.14s.611-.726 1.837-1.453c.863-.511 1.837-.755 2.982-.817zm25.543 6.668c-1.356.514-2.716 1.029-4.082 1.543.301.432.698.777 1.19 1.033.492.258 1.049.386 1.672.386.923 0 1.687-.329 2.29-.987l1.535 1.852a5.556 5.556 0 0 1-1.717 1.204 5.096 5.096 0 0 1-2.108.432c-.844 0-1.632-.16-2.365-.479a5.959 5.959 0 0 1-1.912-1.312 6.224 6.224 0 0 1-1.28-1.929 5.956 5.956 0 0 1-.467-2.361c0-.822.155-1.605.466-2.346a6.001 6.001 0 0 1 1.28-1.929 6.106 6.106 0 0 1 1.913-1.296 5.862 5.862 0 0 1 2.365-.479c.622 0 1.22.13 1.792.386a5.15 5.15 0 0 1 1.536 1.065c.452.453.848.993 1.19 1.62a8.52 8.52 0 0 1 .783 2.053c-1.366.515-2.726 1.03-4.081 1.544zm15.122-6.39h2.203v9.137h2.29v2.438H105.1V30.487c-.02.062-.121.176-.302.34-.18.165-.437.335-.767.51a6.356 6.356 0 0 1-1.19.462c-.463.134-.984.2-1.567.2-.843 0-1.637-.159-2.38-.477a5.915 5.915 0 0 1-1.927-1.313 6.228 6.228 0 0 1-1.28-1.929 5.875 5.875 0 0 1-.467-2.33c0-.803.155-1.574.466-2.315a6.19 6.19 0 0 1 1.28-1.945 6.135 6.135 0 0 1 1.928-1.327 5.812 5.812 0 0 1 2.38-.494c.543 0 1.044.083 1.506.247.462.165.864.345 1.205.54.341.196.612.386.813.571.2.186.302.31.302.37l-.005-1.45zm15.116-7.684h-1.988v-2.438h4.487v19.259H125v2.438h-4.488V30.487c-.02.062-.12.176-.301.34-.181.165-.437.335-.768.51a6.356 6.356 0 0 1-1.19.462c-.462.134-.984.2-1.567.2-.843 0-1.637-.159-2.38-.477a5.92 5.92 0 0 1-1.927-1.313 6.176 6.176 0 0 1-1.28-1.944 5.976 5.976 0 0 1-.467-2.346c0-.823.155-1.6.468-2.33.31-.73.737-1.374 1.28-1.93a5.934 5.934 0 0 1 1.927-1.311 5.97 5.97 0 0 1 2.38-.479c.501 0 .979.073 1.43.216.452.145.848.31 1.19.494.342.186.682.422.893.607l.01-8.723zm-47.618 7.684h4.463v1.674c1.24-2.133 4.092-1.952 4.092-1.952v2.5c-4.058.186-4.066 4.672-4.066 4.672v2.243h1.897v2.438h-6.687v-2.438h2.29v-6.698h-1.989v-2.439zm13.66 3.164c-.643.628-.984 1.415-1.024 2.361.943-.35 1.882-.705 2.816-1.065.934-.36 1.872-.714 2.816-1.065a3.716 3.716 0 0 0-.949-.848 2.172 2.172 0 0 0-1.159-.325c-1.024 0-1.858.315-2.5.942zm12.45 5.155c.655.69 1.508 1.033 2.556 1.033 1.049 0 1.901-.344 2.556-1.033.655-.69.983-1.538.983-2.547 0-1.029-.328-1.877-.983-2.547-.655-.668-1.507-1.002-2.556-1.002-1.048 0-1.901.334-2.556 1.002-.656.67-.983 1.518-.983 2.547 0 1.009.327 1.858.983 2.547zm15.413 0c.655.69 1.507 1.033 2.556 1.033 1.048 0 1.9-.344 2.556-1.033.655-.69.983-1.538.983-2.547 0-1.029-.328-1.877-.983-2.547-.655-.668-1.508-1.002-2.556-1.002-1.049 0-1.901.334-2.556 1.002-.656.67-.984 1.518-.984 2.547 0 1.009.328 1.858.984 2.547z"/>
    </g>
</svg>
